<svg xmlns="http://www.w3.org/2000/svg" xmlns:xlink="http://www.w3.org/1999/xlink" width="500" zoomAndPan="magnify" viewBox="0 0 375 374.999991" height="500" preserveAspectRatio="xMidYMid meet" version="1.0"><path fill="#fb8500" d="M 156.804688 141.804688 C 156.804688 141.804688 128.261719 136.402344 123.964844 99.066406 C 119.667969 61.734375 146.984375 47.488281 148.515625 46.503906 C 150.050781 45.523438 142.074219 52.726562 142.6875 65.828125 C 143.300781 78.925781 153.121094 85.804688 153.121094 85.804688 C 153.121094 85.804688 144.375 68.9375 153.886719 47.160156 C 163.402344 25.378906 176.597656 18.011719 176.597656 18.011719 C 176.597656 18.011719 175.265625 22.109375 183.609375 28.492188 C 191.945312 34.878906 197.160156 45.683594 195.167969 54.855469 C 193.171875 64.023438 190.871094 66.808594 190.871094 66.808594 C 190.871094 66.808594 204.679688 59.605469 202.378906 36.679688 C 200.078125 13.753906 178.75 0 178.75 0 C 178.75 0 204.375 2.128906 221.101562 28.984375 C 237.824219 55.835938 224.628906 85.96875 224.628906 85.96875 C 224.628906 85.96875 235.523438 82.039062 238.4375 69.101562 C 241.355469 56.164062 235.832031 45.847656 235.832031 45.847656 C 235.832031 45.847656 255.011719 65.828125 248.261719 96.9375 C 241.511719 128.050781 216.34375 139.183594 202.378906 139.347656 C 188.414062 139.511719 197.007812 136.894531 204.679688 133.125 C 212.351562 129.359375 218.800781 121.5 219.875 114.949219 C 220.949219 108.402344 220.792969 103.816406 220.792969 103.816406 C 220.792969 103.816406 218.644531 107.417969 215.730469 108.890625 C 212.816406 110.363281 209.285156 111.019531 209.285156 111.019531 C 209.285156 111.019531 213.121094 102.507812 209.285156 93.5 C 205.449219 84.492188 202.378906 79.089844 202.378906 79.089844 C 202.378906 79.089844 205.292969 89.570312 201.148438 93.335938 C 197.007812 97.101562 193.171875 104.960938 193.171875 104.960938 C 193.171875 104.960938 194.09375 96.9375 190.410156 93.171875 C 186.726562 89.40625 178.75 84.328125 178.75 84.328125 C 178.75 84.328125 179.511719 92.191406 174.296875 96.9375 C 169.078125 101.6875 167.699219 108.890625 169.078125 112.167969 C 170.460938 115.441406 173.992188 118.554688 173.992188 118.554688 C 173.992188 118.554688 171.074219 120.84375 166.320312 118.554688 C 161.5625 116.261719 159.105469 111.019531 159.105469 111.019531 C 159.105469 111.019531 154.65625 119.863281 160.792969 127.722656 C 166.933594 135.582031 179.054688 135.910156 171.382812 137.710938 C 163.707031 139.511719 156.804688 141.804688 156.804688 141.804688 Z M 156.804688 141.804688 " fill-opacity="1" fill-rule="nonzero"/><path fill="#e67e22" d="M 241.621094 151.847656 C 241.621094 151.847656 224.613281 133.984375 187.550781 133.984375 C 150.484375 133.984375 134.566406 146.390625 132.609375 150.320312 C 130.644531 154.25 132.390625 171.71875 133.480469 181.976562 C 134.566406 192.238281 138.273438 200.972656 138.273438 196.824219 C 138.273438 192.675781 139.582031 162.328125 140.457031 156.433594 C 141.328125 150.539062 165.09375 141.628906 187.550781 141.628906 C 210.007812 141.628906 241.621094 151.847656 241.621094 151.847656 Z M 241.621094 151.847656 " fill-opacity="1" fill-rule="nonzero"/><path fill="#e67e22" d="M 146.996094 158.179688 C 146.996094 158.179688 160.078125 147.742188 187.550781 147.742188 C 215.023438 147.742188 233.335938 159.273438 234.210938 162.546875 C 235.082031 165.820312 234.210938 188.746094 234.210938 191.367188 C 234.210938 193.988281 223.742188 187.4375 208.699219 184.816406 C 193.652344 182.195312 185.589844 181.976562 183.40625 182.414062 C 181.226562 182.851562 184.058594 178.484375 198.886719 174.992188 C 212.121094 171.875 199.105469 168.917969 187.550781 168.917969 C 175.992188 168.917969 166.839844 170.625 166.839844 170.625 C 166.839844 170.625 173.460938 165.683594 181.445312 163.421875 C 193.003906 160.144531 191.472656 157.304688 173.597656 155.996094 C 155.71875 154.6875 143.070312 161.453125 146.996094 158.179688 Z M 146.996094 158.179688 " fill-opacity="1" fill-rule="nonzero"/><path fill="#e67e22" d="M 229.628906 200.972656 C 228.085938 197.882812 216.113281 193.113281 206.082031 191.367188 C 197.054688 189.796875 177.0625 189.902344 168.035156 191.476562 C 158.007812 193.222656 147.269531 197.882812 145.726562 200.972656 C 145.074219 202.28125 152.921875 203.59375 158.15625 205.777344 C 163.390625 207.960938 161.507812 206.894531 169.058594 204.246094 C 177.210938 201.390625 198.148438 201.390625 206.300781 204.246094 C 213.847656 206.894531 211.96875 207.960938 217.203125 205.777344 C 222.433594 203.59375 230.285156 202.28125 229.628906 200.972656 Z M 229.628906 200.972656 " fill-opacity="1" fill-rule="nonzero"/><path fill="#e67e22" d="M 213.824219 217.894531 C 215.574219 218.566406 202.046875 208.335938 187.550781 208.335938 C 173.050781 208.335938 160.296875 212.980469 159.859375 219.53125 C 159.421875 226.082031 161.605469 261.011719 165.964844 295.511719 C 170.324219 330.007812 175.121094 374.109375 177.300781 373.671875 C 179.484375 373.234375 171.195312 314.285156 168.148438 277.605469 C 165.09375 240.929688 164.664062 220.507812 170.324219 217.347656 C 177.464844 213.363281 193.652344 210.144531 213.824219 217.894531 Z M 213.824219 217.894531 " fill-opacity="1" fill-rule="nonzero"/><path fill="#e67e22" d="M 182.699219 372.363281 C 183.40625 374.691406 192.675781 374.980469 193.328125 370.230469 C 193.980469 365.484375 202.320312 300.3125 204.773438 280.992188 C 207.226562 261.667969 211.480469 217.785156 209.84375 219.09375 C 209.84375 219.09375 207.71875 217.621094 203.957031 233.996094 C 200.203125 250.335938 195.617188 253.480469 194.800781 245.457031 C 193.980469 237.433594 193.328125 226.300781 191.695312 228.101562 C 190.058594 229.902344 189.570312 237.925781 187.550781 249.222656 C 185.53125 260.523438 183.027344 268.546875 180.246094 260.03125 C 177.464844 251.515625 174.6875 244.476562 173.867188 249.222656 C 173.050781 253.972656 181.554688 368.59375 182.699219 372.363281 Z M 182.699219 372.363281 " fill-opacity="1" fill-rule="nonzero"/></svg>